PathFileType	4	(X/Y/Z)	c:/Users/goper/Files/vsCode/490R/osim_files/C15/C15_Slow_06.trc
DataRate	CameraRate	NumFrames	NumMarkers	Units                	OrigDataRate	OrigDataStartFrame	OrigNumFrames
250.00	250.00	7	36	mm	250.0	1762	2818
                Frame#	Time	LPSIS			LASIS			LTH1			LTH2			LTH3			LTH4			LLFE			LMFE			LSH1			LSH2			LSH3			LSH4			LLMAL			LMMAL			LCAL			LMTP5			LTOE			LMTP1			RPSIS			RASIS			RTH1			RTH2			RTH3			RTH4			RLFE			RMFE			RSH1			RSH2			RSH3			RSH4			RLMAL			RMMAL			RCAL			RMTP1			RTOE			RMTP5		
		X1	Y1	Z1	X2	Y2	Z2	X3	Y3	Z3	X4	Y4	Z4	X5	Y5	Z5	X6	Y6	Z6	X7	Y7	Z7	X8	Y8	Z8	X9	Y9	Z9	X10	Y10	Z10	X11	Y11	Z11	X12	Y12	Z12	X13	Y13	Z13	X14	Y14	Z14	X15	Y15	Z15	X16	Y16	Z16	X17	Y17	Z17	X18	Y18	Z18	X19	Y19	Z19	X20	Y20	Z20	X21	Y21	Z21	X22	Y22	Z22	X23	Y23	Z23	X24	Y24	Z24	X25	Y25	Z25	X26	Y26	Z26	X27	Y27	Z27	X28	Y28	Z28	X29	Y29	Z29	X30	Y30	Z30	X31	Y31	Z31	X32	Y32	Z32	X33	Y33	Z33	X34	Y34	Z34	X35	Y35	Z35	X36	Y36	Z36

1762	7.04400	-990.92114	1011.98474	288.63379	-1162.12915	990.39691	342.67041	-1178.33276	608.03479	410.64951	-1189.65247	563.34937	393.07425	-1224.18408	628.55975	402.63733	-1236.66016	585.96619	391.65347	-1220.03162	497.50388	370.25314	-1220.83911	483.99161	252.91547	-1176.93591	380.54453	384.74762	-1184.38086	336.67441	388.99780	-1238.54932	385.58023	380.82529	-1237.80835	340.95193	385.39154	-1233.30896	81.14552	321.89673	-1256.61548	112.47359	236.38751	-1180.28369	58.84286	271.55377	-1360.26367	42.59939	341.73245	-1416.00085	76.71825	285.48071	-1381.97864	47.60721	227.48291	-986.05341	1008.27606	168.23201	-1134.74084	976.89929	95.30539	-1024.94849	611.86322	54.01603	-1021.90540	566.56067	62.87599	-1085.13513	603.41510	61.75851	-1073.62732	557.07904	65.35488	-1012.91321	472.42780	84.13643	-1006.02106	455.67459	201.66232	-883.46570	424.40958	76.09484	-859.65356	388.33350	73.83469	-931.86011	383.58670	69.22363	-900.14325	355.57864	66.24461	-738.22595	145.18297	133.08029	-782.06110	151.99673	215.62500	-672.10956	146.03307	182.91187	-842.51691	43.86711	217.02750	-871.42181	55.29136	163.45506	-807.80829	35.35312	102.01283
1763	7.04800	-994.91016	1012.53888	289.41504	-1166.12756	990.94525	343.23508	-1180.93555	607.84674	410.98340	-1192.10010	563.32788	393.19540	-1226.84265	628.30157	403.21454	-1239.28076	585.73206	392.04312	-1222.52808	497.49878	370.48883	-1223.60913	484.17075	253.15436	-1179.21753	380.56525	384.37271	-1186.35193	336.89191	388.92749	-1240.76306	385.76596	381.06903	-1239.77173	340.86499	385.39771	-1233.72937	81.14180	321.82333	-1256.95728	112.31564	236.19527	-1180.45361	58.97930	271.57089	-1360.50623	42.46022	341.50140	-1416.27148	75.87976	284.95218	-1382.24622	46.91872	227.19026	-989.99670	1008.61176	169.06505	-1138.35364	977.35815	95.97222	-1030.48059	611.69116	54.03646	-1027.84827	566.25574	62.74724	-1090.62891	603.57550	61.58074	-1079.39417	557.18195	64.96729	-1019.32153	472.32874	83.55134	-1012.93243	455.04504	201.09917	-889.69537	425.63928	76.14481	-865.09924	390.20609	73.88731	-937.60736	385.48343	68.93262	-905.13177	356.93866	65.77663	-741.28021	147.76485	132.63063	-785.59155	154.02014	214.80739	-675.28674	150.30988	182.72131	-843.31677	44.44838	216.97636	-872.07227	55.38625	163.30249	-808.20905	35.92094	102.19745
1764	7.05200	-999.15125	1013.23059	291.12430	-1169.98547	991.39551	343.82541	-1183.27820	607.64758	411.30975	-1194.27136	563.23505	393.29111	-1229.58972	627.93774	403.09320	-1241.64844	585.38397	392.52890	-1224.98755	497.40015	370.64557	-1226.24329	484.36877	253.28561	-1181.06067	381.07544	384.45499	-1187.90112	337.20129	388.72284	-1242.84204	385.72614	381.08844	-1241.48169	341.11047	385.73355	-1234.09106	81.12717	321.67987	-1257.35425	112.19772	235.96732	-1180.60706	59.19059	271.57315	-1360.56433	42.26371	341.11279	-1416.66907	75.13818	284.42242	-1382.49316	46.26192	226.88776	-993.71924	1009.06189	169.81242	-1141.89990	977.69836	96.45177	-1036.16431	611.50018	54.14126	-1033.67639	566.07092	62.44091	-1096.35547	603.73621	61.34869	-1085.41833	557.23645	64.54951	-1025.76501	472.23138	82.91647	-1019.98291	454.27170	200.46980	-896.07532	426.85278	76.10516	-870.74048	392.05420	73.93340	-943.13513	386.36575	68.40555	-910.31989	358.32825	65.31423	-744.40350	150.46626	132.17886	-789.09918	156.17290	214.03516	-678.76147	154.63554	182.45581	-844.15448	45.27863	216.91516	-872.91638	55.55931	163.09372	-808.72595	36.59146	102.36845
1765	7.05600	-1003.14264	1013.72565	291.89444	-1174.02856	991.90881	344.40002	-1185.48267	607.35565	411.62283	-1196.24036	562.96063	393.32678	-1231.74011	627.53455	404.56479	-1243.78577	584.85962	393.07623	-1227.17944	497.41974	370.79929	-1228.75513	484.53464	253.41325	-1181.81738	381.01007	383.47626	-1189.48572	337.51437	388.48862	-1244.73669	385.46378	380.99371	-1243.10193	340.98764	385.60962	-1234.44299	81.14443	321.50684	-1257.73462	112.04175	235.78517	-1180.71997	59.40044	271.54431	-1360.75195	42.25108	340.84918	-1416.94983	74.30891	283.80188	-1381.32410	43.45417	226.49138	-997.37830	1009.51770	170.68716	-1145.49719	978.11584	97.07255	-1041.82886	611.31989	53.99891	-1039.65466	565.87323	62.14389	-1101.98022	603.96869	61.02143	-1091.30200	557.32501	64.17236	-1032.42273	472.07565	82.27475	-1027.16394	453.52979	199.83939	-902.69543	428.03391	76.03449	-876.60071	393.78748	73.88126	-948.95721	387.27969	67.86980	-915.68933	359.62973	64.83358	-747.64789	153.31889	131.74625	-792.90607	158.38937	213.24251	-682.24921	159.31680	182.09741	-845.20984	46.36707	216.94388	-873.65918	55.67667	162.93555	-809.64294	37.86724	102.54017
1766	7.06000	-1007.03979	1014.27081	292.77264	-1178.12183	992.34979	344.90042	-1187.54639	607.24261	412.02356	-1198.07544	562.71637	393.41971	-1234.01794	627.12982	405.21973	-1245.79834	584.40265	393.68112	-1229.32288	497.37604	370.90497	-1231.08936	484.72470	253.39485	-1184.76721	381.46552	383.55588	-1191.05481	337.71747	388.13104	-1246.59619	385.17441	380.93863	-1244.66797	340.91385	385.54050	-1234.85144	81.18880	321.29770	-1258.08301	111.95156	235.55507	-1180.79639	59.58914	271.50360	-1361.08728	42.38455	340.75244	-1417.14807	73.52657	283.28409	-1381.36365	42.62901	226.12958	-1000.95020	1009.88928	171.57051	-1148.91870	978.52539	97.70325	-1047.46362	611.26703	53.59231	-1045.75940	565.67798	61.74290	-1107.82593	604.15417	60.65759	-1097.60034	557.47803	63.50704	-1039.12256	471.96396	81.61135	-1034.41504	452.87134	199.06387	-909.44666	429.18243	75.84703	-882.67145	395.50412	73.75748	-952.69281	386.28601	67.80769	-921.24286	360.89886	64.26773	-751.11035	156.24771	131.26079	-796.56787	160.79289	212.59000	-686.06927	164.05061	181.76366	-846.38928	47.57003	216.99974	-874.77838	55.89081	162.72972	-810.03308	38.86522	102.92531
1767	7.06400	-1011.03558	1014.75250	293.54956	-1182.12097	993.03162	345.56824	-1189.71619	607.06329	412.33948	-1200.20837	562.69000	393.62714	-1236.34473	626.76196	405.84290	-1247.94629	583.91052	394.34558	-1231.43420	497.34744	371.01959	-1233.30078	484.88901	253.39246	-1186.45837	381.67389	383.20041	-1192.45349	337.94736	387.74759	-1248.19446	385.46884	380.98969	-1246.07104	340.85577	385.47168	-1235.19995	81.24637	321.06149	-1258.39929	111.82723	235.30296	-1180.88428	59.75314	271.42459	-1361.24915	42.38096	340.51898	-1417.46326	72.77052	282.80298	-1381.52441	41.84501	225.86903	-1004.65814	1010.29065	172.40288	-1152.37488	978.90814	98.26447	-1053.31458	610.96417	53.55528	-1051.77869	565.42944	61.30265	-1113.60547	604.37122	60.20416	-1103.69763	557.58698	62.90413	-1046.50439	471.33881	81.40142	-1041.83850	452.17072	198.29611	-915.84106	430.79388	74.68415	-888.90924	397.23618	73.52386	-958.63562	386.96417	67.18221	-927.12756	362.11887	63.75907	-754.76794	159.35394	130.78400	-800.32489	163.30022	211.99899	-689.93280	169.02577	181.46690	-847.69482	49.13077	217.03905	-876.01794	56.21297	162.56340	-810.45532	39.95337	103.26477
1768	7.06800	-1014.92743	1015.23151	294.41656	-1186.05884	993.36920	346.05548	-1191.83093	606.94281	412.67197	-1202.34668	562.67505	393.83591	-1238.77637	626.40723	405.79068	-1250.22058	583.59894	394.92770	-1233.40735	497.32352	371.18259	-1234.78003	484.50790	253.89510	-1186.91492	381.68585	382.46652	-1193.72803	338.16626	387.33090	-1250.09753	385.50403	381.06763	-1247.54248	340.76126	385.35556	-1235.54126	81.34472	320.80087	-1258.33105	111.81427	234.63713	-1180.99487	59.95318	271.34482	-1361.41895	42.40547	340.33432	-1417.68091	72.06265	282.36023	-1381.60486	41.11024	225.54352	-1008.24493	1010.65344	173.24684	-1155.80713	979.30927	98.87721	-1059.05408	610.80292	53.26629	-1058.04199	565.14441	60.82308	-1119.54468	604.54810	59.68024	-1109.81799	557.70251	62.36297	-1053.43848	471.16525	80.67344	-1049.50439	451.50574	197.54185	-921.95734	432.94254	75.42070	-895.44733	398.74634	73.23727	-965.15558	387.63733	66.54852	-933.16266	363.18854	63.25660	-758.68701	162.59450	130.33601	-804.32178	165.98325	211.42526	-694.06464	174.04640	181.22897	-849.22479	50.84979	217.22231	-877.33795	56.64949	162.25418	-811.07898	41.37314	103.65540
